<svg width="40" height="40" viewBox="0 0 40 40" fill="none" xmlns="http://www.w3.org/2000/svg">
<mask id="mask0_2312_2221" style="mask-type:alpha" maskUnits="userSpaceOnUse" x="0" y="0" width="40" height="40">
<rect width="40" height="40" fill="#D9D9D9"/>
</mask>
<g mask="url(#mask0_2312_2221)">
<path d="M21.734 29.6763L24.9994 27.7138L28.2653 29.6763L27.4028 25.9613L30.2519 23.4872L26.4944 23.1722L24.9998 19.6634L23.5053 23.1722L19.7478 23.4872L22.6036 25.9617L21.734 29.6763ZM10.9186 23.7392V25.8334H6.77359C6.05942 25.8334 5.44637 25.5774 4.93442 25.0655C4.42248 24.5536 4.1665 23.9405 4.1665 23.2263V6.77383C4.1665 6.05967 4.42248 5.44661 4.93442 4.93466C5.44637 4.42272 6.05942 4.16675 6.77359 4.16675H23.2261C23.9403 4.16675 24.5533 4.42272 25.0653 4.93466C25.5772 5.44661 25.8332 6.05967 25.8332 6.77383V10.9188H23.739V6.77383C23.739 6.62411 23.691 6.50119 23.5948 6.40508C23.4987 6.30897 23.3758 6.26092 23.2261 6.26092H6.77359C6.62387 6.26092 6.50095 6.30897 6.40484 6.40508C6.30873 6.50119 6.26067 6.62411 6.26067 6.77383V23.2263C6.26067 23.3761 6.30873 23.499 6.40484 23.5951C6.50095 23.6912 6.62387 23.7392 6.77359 23.7392H10.9186ZM16.7736 35.8334C16.0594 35.8334 15.4464 35.5774 14.9344 35.0655C14.4225 34.5536 14.1665 33.9405 14.1665 33.2263V16.7738C14.1665 16.0597 14.4225 15.4466 14.9344 14.9347C15.4464 14.4227 16.0594 14.1667 16.7736 14.1667H33.2261C33.9403 14.1667 34.5533 14.4227 35.0653 14.9347C35.5772 15.4466 35.8332 16.0597 35.8332 16.7738V33.2263C35.8332 33.9405 35.5772 34.5536 35.0653 35.0655C34.5533 35.5774 33.9403 35.8334 33.2261 35.8334H16.7736ZM16.7736 33.7392H33.2261C33.3758 33.7392 33.4987 33.6912 33.5948 33.5951C33.691 33.499 33.739 33.3761 33.739 33.2263V16.7738C33.739 16.6241 33.691 16.5012 33.5948 16.4051C33.4987 16.309 33.3758 16.2609 33.2261 16.2609H16.7736C16.6239 16.2609 16.5009 16.309 16.4048 16.4051C16.3087 16.5012 16.2607 16.6241 16.2607 16.7738V33.2263C16.2607 33.3761 16.3087 33.499 16.4048 33.5951C16.5009 33.6912 16.6239 33.7392 16.7736 33.7392Z" fill="#636262"/>
</g>
</svg>
