<svg width="24" height="24" viewBox="0 0 24 24" fill="none" xmlns="http://www.w3.org/2000/svg">
<mask id="mask0_2312_2749" style="mask-type:alpha" maskUnits="userSpaceOnUse" x="0" y="0" width="24" height="24">
<rect width="24" height="24" fill="#D9D9D9"/>
</mask>
<g mask="url(#mask0_2312_2749)">
<path d="M11.9974 19.2695C11.6922 19.2695 11.4316 19.1608 11.2156 18.9435C10.9996 18.7261 10.8916 18.4649 10.8916 18.1597C10.8916 17.8545 11.0003 17.5929 11.2176 17.3747C11.4349 17.1567 11.6962 17.0477 12.0014 17.0477C12.3065 17.0477 12.5671 17.157 12.7831 17.3757C12.9991 17.5942 13.1071 17.857 13.1071 18.1642C13.1071 18.4694 12.9984 18.7299 12.7811 18.9457C12.5638 19.1615 12.3025 19.2695 11.9974 19.2695ZM11.9974 13.108C11.6922 13.108 11.4316 12.9993 11.2156 12.782C10.9996 12.5646 10.8916 12.3034 10.8916 11.9982C10.8916 11.693 11.0003 11.4325 11.2176 11.2165C11.4349 11.0005 11.6962 10.8925 12.0014 10.8925C12.3065 10.8925 12.5671 11.0011 12.7831 11.2185C12.9991 11.4358 13.1071 11.697 13.1071 12.0022C13.1071 12.3074 12.9984 12.568 12.7811 12.784C12.5638 13 12.3025 13.108 11.9974 13.108ZM11.9974 6.95271C11.6922 6.95271 11.4316 6.84337 11.2156 6.62471C10.9996 6.40621 10.8916 6.14337 10.8916 5.83621C10.8916 5.53104 11.0003 5.27054 11.2176 5.05471C11.4349 4.83887 11.6962 4.73096 12.0014 4.73096C12.3065 4.73096 12.5671 4.83962 12.7831 5.05696C12.9991 5.27429 13.1071 5.53554 13.1071 5.84071C13.1071 6.14587 12.9984 6.40754 12.7811 6.62571C12.5638 6.84371 12.3025 6.95271 11.9974 6.95271Z" fill="#8B8A91"/>
</g>
</svg>
